<svg version="1.1" id="Layer_1" xmlns="http://www.w3.org/2000/svg" xmlns:xlink="http://www.w3.org/1999/xlink" x="0px" y="0px"
	 width="100%" viewBox="0 0 512 512" enable-background="new 0 0 512 512" xml:space="preserve">
<path fill="#FFFFFF" opacity="1.000000" stroke="none" 
	d="
M291.000000,513.000000 
	C194.023544,513.000000 97.547081,513.000000 1.035313,513.000000 
	C1.035313,342.398529 1.035313,171.797028 1.035313,1.097768 
	C171.559799,1.097768 342.119690,1.097768 512.839783,1.097768 
	C512.839783,171.666550 512.839783,342.333252 512.839783,513.000000 
	C439.130341,513.000000 365.315155,513.000000 291.000000,513.000000 
M298.839783,321.996613 
	C300.187653,321.903076 301.535522,321.809570 302.980957,321.709290 
	C302.980957,319.821106 302.980957,318.400818 303.862122,316.996155 
	C305.204712,316.886017 306.547272,316.775848 307.983276,316.658020 
	C307.983276,313.080536 307.983276,310.031738 308.864166,306.996613 
	C310.206238,306.886169 311.548309,306.775757 312.984680,306.657562 
	C312.984680,303.080566 312.984680,300.032501 313.870392,296.996948 
	C315.134155,296.925812 316.397919,296.854675 317.715271,296.780518 
	C317.715271,289.694153 317.715271,282.968414 317.715271,276.014923 
	C315.949036,276.014923 314.467163,276.014923 312.997223,275.099396 
	C312.997223,272.153564 312.997223,269.207764 312.997223,266.014160 
	C310.945465,266.014160 309.465576,266.014160 307.997253,265.098969 
	C307.997253,262.153168 307.997253,259.207367 307.997253,256.014496 
	C305.947266,256.014496 304.466309,256.014496 302.997223,255.091003 
	C302.997223,251.811981 302.997223,248.532959 302.997223,245.014664 
	C300.946716,245.014664 299.466125,245.014664 297.997253,244.099121 
	C297.997253,241.153305 297.997253,238.207474 297.997253,235.016479 
	C295.945923,235.016479 294.464874,235.016479 292.996918,234.100723 
	C292.996918,231.154373 292.996918,228.208023 292.996918,225.017761 
	C290.943298,225.017761 289.462952,225.017761 287.996613,224.160797 
	C287.903198,222.812805 287.809753,221.464813 287.709473,220.018051 
	C285.822052,220.018051 284.401825,220.018051 282.996429,219.101074 
	C282.996429,216.163071 282.996429,213.225067 282.996429,210.019913 
	C280.594482,210.019913 278.787537,210.019913 276.996307,209.095505 
	C276.996307,205.814606 276.996307,202.533707 276.996307,199.021576 
	C274.942566,199.021576 273.460846,199.021576 271.995941,198.105209 
	C271.995941,195.156433 271.995941,192.207642 271.995941,189.026230 
	C269.937286,189.026230 268.455109,189.026230 266.994781,188.109589 
	C266.994781,185.159698 266.994781,182.209808 266.994781,179.026260 
	C264.937897,179.026260 263.455383,179.026260 261.994751,178.109528 
	C261.994751,175.159210 261.994751,172.208878 261.994751,169.033646 
	C259.933777,169.033646 258.450653,169.033646 256.993652,168.153961 
	C256.993652,166.556595 256.993652,164.959229 256.993652,163.029938 
	C255.037231,163.131165 253.652527,163.202805 252.032471,163.286621 
	C252.032471,165.438385 252.032471,167.236008 251.149841,169.006561 
	C249.804337,169.115112 248.458847,169.223663 247.026703,169.339203 
	C247.026703,172.919510 247.026703,175.972656 246.144379,179.005066 
	C244.800018,179.114532 243.455643,179.223999 242.024857,179.340515 
	C242.024857,182.921127 242.024857,185.973389 241.143066,189.005020 
	C239.798935,189.114563 238.454788,189.224106 237.024445,189.340668 
	C237.024445,192.921936 237.024445,195.973526 236.134903,199.004868 
	C234.533798,199.079620 232.932693,199.154373 231.021255,199.243622 
	C231.021255,203.075790 231.021255,206.548309 230.139450,210.004089 
	C228.796448,210.114166 227.453430,210.224243 226.021149,210.341644 
	C226.021149,213.920792 226.021149,216.970749 225.163589,220.004059 
	C223.814713,220.097168 222.465851,220.190277 221.020828,220.290024 
	C221.020828,222.179092 221.020828,223.600189 220.139465,225.004196 
	C218.796234,225.114182 217.452988,225.224182 216.021698,225.341385 
	C216.021698,228.921585 216.021698,231.971863 215.140305,235.004333 
	C213.797333,235.114120 212.454361,235.223892 211.014938,235.341568 
	C211.014938,238.917099 211.014938,241.966125 210.132767,245.003006 
	C208.864304,245.068100 207.595825,245.133194 206.009933,245.214584 
	C206.009933,249.062027 206.009933,252.535965 205.129593,256.001923 
	C203.861450,256.065796 202.593307,256.129669 201.006790,256.209564 
	C201.006790,259.728302 201.006790,262.867493 200.126953,266.001343 
	C198.859406,266.065399 197.591873,266.129425 196.003860,266.209686 
	C196.003860,269.727722 196.003860,272.865784 195.114685,276.000732 
	C193.523499,276.076294 191.932312,276.151886 190.297882,276.229492 
	C190.297882,283.312897 190.297882,290.021515 190.297882,296.990051 
	C192.399750,296.990051 194.204849,296.990051 196.001846,297.904938 
	C196.001846,300.850677 196.001846,303.796448 196.001846,306.979004 
	C198.059937,306.979004 199.540665,306.979004 201.004135,307.895050 
	C201.004135,310.843109 201.004135,313.791168 201.004135,316.976868 
	C203.059845,316.976868 204.541260,316.976868 206.004410,317.835358 
	C206.097687,319.184784 206.190964,320.534241 206.290344,321.971985 
	C208.182999,321.971985 209.605194,321.971985 211.004990,322.831268 
	C211.097519,324.181641 211.190048,325.532013 211.289078,326.977142 
	C213.178909,326.977142 214.601166,326.977142 216.004593,327.858704 
	C216.114319,329.202271 216.224045,330.545807 216.341141,331.979553 
	C219.920227,331.979553 222.970490,331.979553 226.004089,332.862335 
	C226.115402,334.205780 226.226715,335.549225 226.345306,336.980530 
	C230.261429,336.980530 233.640701,336.980530 237.003845,337.871490 
	C237.077957,339.466644 237.152069,341.061768 237.228531,342.707581 
	C248.973450,342.707581 260.343689,342.707581 271.995331,342.707581 
	C271.995331,340.609467 271.995331,338.802399 272.917694,336.999207 
	C276.193909,336.999207 279.470123,336.999207 282.990356,336.999207 
	C282.990356,334.949158 282.990356,333.469818 283.905121,331.998199 
	C286.849609,331.998199 289.794128,331.998199 292.986176,331.998199 
	C292.986176,329.945099 292.986176,328.465698 293.842712,326.997406 
	C295.189758,326.903534 296.536774,326.809662 297.983154,326.708893 
	C297.983154,324.821838 297.983154,323.402344 298.839783,321.996613 
z"/>
<path fill="#31A2F2" opacity="1.000000" stroke="none" 
	d="
M271.995331,336.995361 
	C271.995331,338.802399 271.995331,340.609467 271.995331,342.707581 
	C260.343689,342.707581 248.973450,342.707581 237.228531,342.707581 
	C237.152069,341.061768 237.077957,339.466644 237.003326,337.434387 
	C237.002792,336.997314 236.985855,337.014069 237.441177,337.003998 
	C240.930939,336.937073 243.965378,336.880188 247.449921,336.891724 
	C250.935776,336.915894 253.971542,336.871704 257.468262,336.897308 
	C262.621490,336.980103 267.313782,336.993073 272.003235,337.003235 
	C272.000397,337.000397 271.995331,336.995361 271.995331,336.995361 
z"/>
<path fill="#31A2F2" opacity="1.000000" stroke="none" 
	d="
M196.009949,296.990051 
	C194.204849,296.990051 192.399750,296.990051 190.297882,296.990051 
	C190.297882,290.021515 190.297882,283.312897 190.297882,276.229492 
	C191.932312,276.151886 193.523499,276.076294 195.556717,275.999634 
	C195.998749,275.998535 195.992264,275.992310 195.994049,276.458984 
	C196.053864,281.615051 196.111908,286.304413 196.101639,291.418427 
	C196.019516,293.564697 196.005722,295.286346 195.996292,297.003723 
	C196.000656,296.999481 196.009949,296.990051 196.009949,296.990051 
z"/>
<path fill="#31A2F2" opacity="1.000000" stroke="none" 
	d="
M312.985291,276.014923 
	C314.467163,276.014923 315.949036,276.014923 317.715271,276.014923 
	C317.715271,282.968414 317.715271,289.694153 317.715271,296.780518 
	C316.397919,296.854675 315.134155,296.925812 313.434967,296.998230 
	C312.999542,296.999481 313.014374,297.014374 313.007751,296.556641 
	C312.944672,292.731781 312.888214,289.364655 312.898743,285.547546 
	C312.981812,282.060333 312.997925,279.023132 313.006897,275.993103 
	C312.999725,276.000305 312.985291,276.014923 312.985291,276.014923 
z"/>
<path fill="#31A2F2" opacity="1.000000" stroke="none" 
	d="
M231.021255,210.020813 
	C231.021255,206.548309 231.021255,203.075790 231.021255,199.243622 
	C232.932693,199.154373 234.533798,199.079620 236.568741,199.003784 
	C237.002579,199.002716 236.980545,198.980499 236.990814,199.443359 
	C237.001068,203.185547 237.001068,206.464844 237.001068,209.979614 
	C234.603806,209.979614 232.791687,209.979614 230.989944,209.989944 
	C231.000320,210.000275 231.021255,210.020813 231.021255,210.020813 
z"/>
<path fill="#31A2F2" opacity="1.000000" stroke="none" 
	d="
M276.980621,210.019913 
	C278.787537,210.019913 280.594482,210.019913 282.996429,210.019913 
	C282.996429,213.225067 282.996429,216.163071 282.998169,219.550613 
	C282.999878,220.000153 283.017853,219.982132 282.581970,219.988907 
	C280.477905,219.995682 278.809662,219.995682 277.182129,219.995682 
	C277.033539,217.852371 276.934845,216.428772 276.905334,214.591064 
	C276.990112,212.777527 277.005707,211.378098 277.011108,209.988922 
	C277.000916,209.999191 276.980621,210.019913 276.980621,210.019913 
z"/>
<path fill="#31A2F2" opacity="1.000000" stroke="none" 
	d="
M282.990356,331.990509 
	C282.990356,333.469818 282.990356,334.949158 282.990356,336.999207 
	C279.470123,336.999207 276.193909,336.999207 272.456512,336.997284 
	C271.995331,336.995361 272.000397,337.000397 272.001526,336.575195 
	C272.094910,334.802887 272.187164,333.455811 272.275696,332.163696 
	C274.163086,332.031189 275.578583,331.931824 277.419434,331.901428 
	C279.566742,331.983826 281.288757,331.997314 283.005737,332.005798 
	C283.000732,332.000793 282.990356,331.990509 282.990356,331.990509 
z"/>
<path fill="#31A2F2" opacity="1.000000" stroke="none" 
	d="
M297.985535,245.014664 
	C299.466125,245.014664 300.946716,245.014664 302.997223,245.014664 
	C302.997223,248.532959 302.997223,251.811981 302.998230,255.545914 
	C302.999207,256.000824 303.012695,255.987259 302.604187,255.992950 
	C300.834381,255.985184 299.473114,255.971741 298.064362,255.504990 
	C298.016022,251.696320 298.015167,248.340958 298.007141,244.992828 
	C298.000000,245.000031 297.985535,245.014664 297.985535,245.014664 
z"/>
<path fill="#31A2F2" opacity="1.000000" stroke="none" 
	d="
M206.009933,256.009888 
	C206.009933,252.535965 206.009933,249.062027 206.009933,245.214584 
	C207.595825,245.133194 208.864304,245.068100 210.567444,245.002563 
	C211.002136,245.002136 210.989731,244.989731 210.996429,245.408249 
	C211.059921,247.217865 211.116714,248.608963 211.104248,250.421417 
	C210.986557,252.548752 210.938126,254.254761 210.481873,255.977478 
	C208.713150,255.993256 207.352249,255.992294 205.995850,255.995880 
	C206.000336,256.000397 206.009933,256.009888 206.009933,256.009888 
z"/>
<path fill="#31A2F2" opacity="1.000000" stroke="none" 
	d="
M237.011383,336.988922 
	C233.640701,336.980530 230.261429,336.980530 226.345306,336.980530 
	C226.226715,335.549225 226.115402,334.205780 226.005768,332.427429 
	C226.007462,331.992554 225.995956,332.003967 226.452271,331.996521 
	C230.240280,332.008850 233.571960,332.028656 236.946716,332.460052 
	C236.988480,334.252472 236.987167,335.633270 236.985855,337.014069 
	C236.985855,337.014069 237.002792,336.997314 237.011383,336.988922 
z"/>
<path fill="#31A2F2" opacity="1.000000" stroke="none" 
	d="
M271.979095,199.021576 
	C273.460846,199.021576 274.942566,199.021576 276.996307,199.021576 
	C276.996307,202.533707 276.996307,205.814606 276.988464,209.557709 
	C276.980621,210.019913 277.000916,209.999191 276.593628,209.995865 
	C274.007690,210.054794 271.564850,210.501190 271.904785,206.560211 
	C271.989868,203.738678 272.006439,201.357834 272.011993,198.988068 
	C272.000977,198.999176 271.979095,199.021576 271.979095,199.021576 
z"/>
<path fill="#31A2F2" opacity="1.000000" stroke="none" 
	d="
M247.026703,179.025803 
	C247.026703,175.972656 247.026703,172.919510 247.026703,169.339203 
	C248.458847,169.223663 249.804337,169.115112 251.577103,169.005585 
	C252.004364,169.004608 251.975937,168.975876 251.990799,169.434113 
	C252.005661,172.844284 252.005661,175.796234 252.005661,178.973663 
	C249.941635,178.973663 248.457642,178.973663 246.986862,178.986755 
	C247.000061,178.999832 247.026703,179.025803 247.026703,179.025803 
z"/>
<path fill="#31A2F2" opacity="1.000000" stroke="none" 
	d="
M312.992126,296.991943 
	C312.984680,300.032501 312.984680,303.080566 312.984680,306.657562 
	C311.548309,306.775757 310.206238,306.886169 308.431671,306.997833 
	C307.999176,306.999054 308.014984,307.014984 308.007843,306.561035 
	C308.035034,303.088196 308.069397,300.069366 308.511932,297.028442 
	C310.284882,297.009064 311.649628,297.011719 313.014374,297.014374 
	C313.014374,297.014374 312.999542,296.999481 312.992126,296.991943 
z"/>
<path fill="#31A2F2" opacity="1.000000" stroke="none" 
	d="
M256.967529,169.033646 
	C258.450653,169.033646 259.933777,169.033646 261.994751,169.033646 
	C261.994751,172.208878 261.994751,175.159210 261.997192,178.554825 
	C261.999664,179.000122 262.026215,178.973801 261.584717,178.984421 
	C259.797821,178.887024 258.452454,178.779007 257.024048,178.664322 
	C257.024048,175.083862 257.024048,172.029877 257.009827,168.990234 
	C256.995636,169.004608 256.967529,169.033646 256.967529,169.033646 
z"/>
<path fill="#31A2F2" opacity="1.000000" stroke="none" 
	d="
M261.986267,179.013184 
	C263.455383,179.026260 264.937897,179.026260 266.994781,179.026260 
	C266.994781,182.209808 266.994781,185.159698 266.996033,188.556030 
	C266.997314,189.002487 267.021393,188.978561 266.592285,188.988968 
	C264.810974,188.910538 263.458710,188.821686 262.157135,188.736176 
	C262.026215,186.855240 261.927551,185.437485 261.898224,183.603607 
	C261.987122,181.782913 262.006653,180.378357 262.026215,178.973801 
	C262.026215,178.973801 261.999664,179.000122 261.986267,179.013184 
z"/>
<path fill="#31A2F2" opacity="1.000000" stroke="none" 
	d="
M206.022675,316.976868 
	C204.541260,316.976868 203.059845,316.976868 201.004135,316.976868 
	C201.004135,313.791168 201.004135,310.843109 201.005554,307.444092 
	C201.006958,306.993164 200.993423,307.006531 201.402374,306.998108 
	C203.174026,307.005890 204.536743,307.022095 205.943542,307.488220 
	C205.987442,310.963104 205.987259,313.988007 205.995972,317.003998 
	C206.004883,316.995056 206.022675,316.976868 206.022675,316.976868 
z"/>
<path fill="#31A2F2" opacity="1.000000" stroke="none" 
	d="
M307.991211,306.991028 
	C307.983276,310.031738 307.983276,313.080536 307.983276,316.658020 
	C306.547272,316.775848 305.204712,316.886017 303.430023,316.997009 
	C302.997925,316.997833 303.014923,317.014923 303.007050,316.563538 
	C302.943024,313.407074 302.886841,310.702057 303.051178,307.666382 
	C304.852783,307.228790 306.433899,307.121887 308.014984,307.014984 
	C308.014984,307.014984 307.999176,306.999054 307.991211,306.991028 
z"/>
<path fill="#31A2F2" opacity="1.000000" stroke="none" 
	d="
M226.014099,331.986053 
	C222.970490,331.979553 219.920227,331.979553 216.341141,331.979553 
	C216.224045,330.545807 216.114319,329.202271 216.004913,327.426819 
	C216.005234,326.994904 215.987320,327.012634 216.406677,327.001221 
	C218.220932,326.931702 219.615799,326.873566 221.432724,326.885620 
	C223.203461,327.067200 224.552155,327.178558 225.995956,327.297791 
	C225.995956,329.165131 225.995956,330.584534 225.995956,332.003967 
	C225.995956,332.003967 226.007462,331.992554 226.014099,331.986053 
z"/>
<path fill="#31A2F2" opacity="1.000000" stroke="none" 
	d="
M292.986176,326.986298 
	C292.986176,328.465698 292.986176,329.945099 292.986176,331.998199 
	C289.794128,331.998199 286.849609,331.998199 283.447754,331.994354 
	C282.990356,331.990509 283.000732,332.000793 283.001740,331.591003 
	C283.038940,329.800842 283.075134,328.420441 283.557556,327.022461 
	C287.006042,327.006775 290.008270,327.008636 293.004578,327.004578 
	C292.998627,326.998627 292.986176,326.986298 292.986176,326.986298 
z"/>
<path fill="#31A2F2" opacity="1.000000" stroke="none" 
	d="
M237.013519,199.013916 
	C237.024445,195.973526 237.024445,192.921936 237.024445,189.340668 
	C238.454788,189.224106 239.798935,189.114563 241.572327,189.003387 
	C242.001602,189.001770 241.978149,188.978134 241.988220,189.432755 
	C241.962082,192.911926 241.925888,195.936462 241.480957,198.979034 
	C239.708344,198.991531 238.344452,198.986023 236.980545,198.980499 
	C236.980545,198.980499 237.002579,199.002716 237.013519,199.013916 
z"/>
<path fill="#31A2F2" opacity="1.000000" stroke="none" 
	d="
M201.006790,266.006653 
	C201.006790,262.867493 201.006790,259.728302 201.006790,256.209564 
	C202.593307,256.129669 203.861450,256.065796 205.569763,256.005920 
	C206.009933,256.009888 206.000336,256.000397 205.999985,256.449493 
	C205.961639,259.917694 205.923660,262.936798 205.478394,265.973450 
	C203.711456,265.991425 202.351822,265.991821 200.995804,265.995789 
	C200.999420,265.999390 201.006790,266.006653 201.006790,266.006653 
z"/>
<path fill="#31A2F2" opacity="1.000000" stroke="none" 
	d="
M302.992279,256.007660 
	C304.466309,256.014496 305.947266,256.014496 307.997253,256.014496 
	C307.997253,259.207367 307.997253,262.153168 307.998413,265.549683 
	C307.999603,266.000397 308.013245,265.986725 307.604431,265.991333 
	C305.833801,265.983612 304.471985,265.971313 303.062469,265.509460 
	C303.014069,262.035645 303.013367,259.011444 303.012695,255.987259 
	C303.012695,255.987259 302.999207,256.000824 302.992279,256.007660 
z"/>
<path fill="#31A2F2" opacity="1.000000" stroke="none" 
	d="
M196.001312,276.001190 
	C196.003860,272.865784 196.003860,269.727722 196.003860,266.209686 
	C197.591873,266.129425 198.859406,266.065399 200.566864,266.003998 
	C201.006790,266.006653 200.999420,265.999390 200.998596,266.434448 
	C201.054245,268.912811 201.110718,270.956146 201.096283,273.404266 
	C200.745102,277.758392 197.693817,275.319550 195.992264,275.992310 
	C195.992264,275.992310 195.998749,275.998535 196.001312,276.001190 
z"/>
<path fill="#31A2F2" opacity="1.000000" stroke="none" 
	d="
M307.992645,266.007263 
	C309.465576,266.014160 310.945465,266.014160 312.997223,266.014160 
	C312.997223,269.207764 312.997223,272.153564 312.991272,275.557159 
	C312.985291,276.014923 312.999725,276.000305 312.598389,275.998138 
	C310.835754,275.984100 309.474457,275.972198 308.064972,275.510864 
	C308.015625,272.036499 308.014435,269.011597 308.013245,265.986725 
	C308.013245,265.986725 307.999603,266.000397 307.992645,266.007263 
z"/>
<path fill="#31A2F2" opacity="1.000000" stroke="none" 
	d="
M266.985138,189.014359 
	C268.455109,189.026230 269.937286,189.026230 271.995941,189.026230 
	C271.995941,192.207642 271.995941,195.156433 271.987518,198.563385 
	C271.979095,199.021576 272.000977,198.999176 271.570374,198.996796 
	C269.794891,198.887421 268.450012,198.780411 267.021393,198.666748 
	C267.021393,195.087631 267.021393,192.033096 267.021393,188.978561 
	C267.021393,188.978561 266.997314,189.002487 266.985138,189.014359 
z"/>
<path fill="#31A2F2" opacity="1.000000" stroke="none" 
	d="
M292.983826,235.016479 
	C294.464874,235.016479 295.945923,235.016479 297.997253,235.016479 
	C297.997253,238.207474 297.997253,241.153305 297.991394,244.556885 
	C297.985535,245.014664 298.000000,245.000031 297.598572,244.998871 
	C295.835754,244.983444 294.474335,244.969177 293.066925,244.505585 
	C293.019409,241.032028 293.017853,238.007828 293.008209,234.991791 
	C293.000092,234.999954 292.983826,235.016479 292.983826,235.016479 
z"/>
<path fill="#31A2F2" opacity="1.000000" stroke="none" 
	d="
M211.008545,245.008636 
	C211.014938,241.966125 211.014938,238.917099 211.014938,235.341568 
	C212.454361,235.223892 213.797333,235.114120 215.573288,235.005356 
	C216.006271,235.006378 215.991196,234.991180 216.000580,235.444855 
	C215.973602,238.919159 215.937271,241.939804 215.492157,244.979004 
	C213.718811,244.994934 212.354279,244.992325 210.989731,244.989731 
	C210.989731,244.989731 211.002136,245.002136 211.008545,245.008636 
z"/>
<path fill="#31A2F2" opacity="1.000000" stroke="none" 
	d="
M242.013229,189.013702 
	C242.024857,185.973389 242.024857,182.921127 242.024857,179.340515 
	C243.455643,179.223999 244.800018,179.114532 246.585541,179.015442 
	C247.026703,179.025803 247.000061,178.999832 246.997345,179.407715 
	C247.052795,181.216202 247.110962,182.616837 247.102386,184.440094 
	C246.926895,186.209915 246.818146,187.557098 246.703415,188.978134 
	C244.821564,188.978134 243.399857,188.978134 241.978149,188.978134 
	C241.978149,188.978134 242.001602,189.001770 242.013229,189.013702 
z"/>
<path fill="#31A2F2" opacity="1.000000" stroke="none" 
	d="
M287.982635,225.017761 
	C289.462952,225.017761 290.943298,225.017761 292.996918,225.017761 
	C292.996918,228.208023 292.996918,231.154373 292.990356,234.558594 
	C292.983826,235.016479 293.000092,234.999954 292.599518,234.997528 
	C290.837402,234.981293 289.475891,234.967484 288.067596,234.504181 
	C288.019897,231.030457 288.018951,228.006226 288.009155,224.990875 
	C288.000305,224.999786 287.982635,225.017761 287.982635,225.017761 
z"/>
<path fill="#31A2F2" opacity="1.000000" stroke="none" 
	d="
M226.021149,220.020691 
	C226.021149,216.970749 226.021149,213.920792 226.021149,210.341644 
	C227.453430,210.224243 228.796448,210.114166 230.580353,210.012451 
	C231.021255,210.020813 231.000320,210.000275 231.000320,210.393982 
	C231.060074,211.860947 231.119827,212.934235 231.112457,214.437912 
	C231.045334,216.535477 231.045334,218.202637 231.045334,219.983871 
	C228.842453,219.983871 227.413162,219.983871 225.993134,219.993088 
	C226.002396,220.002304 226.021149,220.020691 226.021149,220.020691 
z"/>
<path fill="#31A2F2" opacity="1.000000" stroke="none" 
	d="
M216.013977,235.014252 
	C216.021698,231.971863 216.021698,228.921585 216.021698,225.341385 
	C217.452988,225.224182 218.796234,225.114182 220.571350,225.003769 
	C221.003220,225.003342 220.985641,224.985626 220.993729,225.438385 
	C220.985199,228.897232 220.968582,231.903336 220.540436,234.952118 
	C218.749664,234.993607 217.370438,234.992386 215.991196,234.991180 
	C215.991196,234.991180 216.006271,235.006378 216.013977,235.014252 
z"/>
<path fill="#31A2F2" opacity="1.000000" stroke="none" 
	d="
M201.014191,306.986084 
	C199.540665,306.979004 198.059937,306.979004 196.001846,306.979004 
	C196.001846,303.796448 196.001846,300.850677 196.005890,297.447510 
	C196.009949,296.990051 196.000656,296.999481 196.404419,296.999268 
	C198.167587,297.013641 199.526993,297.028229 200.933167,297.492004 
	C200.984421,300.962982 200.988922,303.984772 200.993423,307.006531 
	C200.993423,307.006531 201.006958,306.993164 201.014191,306.986084 
z"/>
<path fill="#31A2F2" opacity="1.000000" stroke="none" 
	d="
M252.018417,169.019135 
	C252.032471,167.236008 252.032471,165.438385 252.032471,163.286621 
	C253.652527,163.202805 255.037231,163.131165 256.993652,163.029938 
	C256.993652,164.959229 256.993652,166.556595 256.980591,168.593811 
	C256.967529,169.033646 256.995636,169.004608 256.589325,169.005127 
	C254.780655,168.995712 253.378296,168.985794 251.975937,168.975876 
	C251.975937,168.975876 252.004364,169.004608 252.018417,169.019135 
z"/>
<path fill="#31A2F2" opacity="1.000000" stroke="none" 
	d="
M211.027390,321.971985 
	C209.605194,321.971985 208.182999,321.971985 206.290344,321.971985 
	C206.190964,320.534241 206.097687,319.184784 206.013550,317.406128 
	C206.022675,316.976868 206.004883,316.995056 206.411209,316.993103 
	C208.200256,317.023346 209.582962,317.055511 210.988983,317.496490 
	C211.007996,319.270355 211.003708,320.635376 211.005951,321.993835 
	C211.012497,321.987274 211.027390,321.971985 211.027390,321.971985 
z"/>
<path fill="#31A2F2" opacity="1.000000" stroke="none" 
	d="
M282.990753,220.009094 
	C284.401825,220.018051 285.822052,220.018051 287.709473,220.018051 
	C287.809753,221.464813 287.903198,222.812805 287.989624,224.589279 
	C287.982635,225.017761 288.000305,224.999786 287.579803,224.997742 
	C285.807404,224.905762 284.455505,224.815826 283.017853,224.720200 
	C283.017853,222.831650 283.017853,221.406891 283.017853,219.982132 
	C283.017853,219.982132 282.999878,220.000153 282.990753,220.009094 
z"/>
<path fill="#31A2F2" opacity="1.000000" stroke="none" 
	d="
M302.989441,316.989197 
	C302.980957,318.400818 302.980957,319.821106 302.980957,321.709290 
	C301.535522,321.809570 300.187653,321.903076 298.419586,321.997986 
	C297.999390,321.999390 298.015656,322.015686 298.008362,321.587311 
	C298.094604,319.811066 298.188171,318.463196 298.288727,317.014923 
	C300.175446,317.014923 301.595184,317.014923 303.014923,317.014923 
	C303.014923,317.014923 302.997925,316.997833 302.989441,316.989197 
z"/>
<path fill="#31A2F2" opacity="1.000000" stroke="none" 
	d="
M216.014343,326.986023 
	C214.601166,326.977142 213.178909,326.977142 211.289078,326.977142 
	C211.190048,325.532013 211.097519,324.181641 211.016190,322.401611 
	C211.027390,321.971985 211.012497,321.987274 211.419357,321.984253 
	C213.202225,322.004364 214.578247,322.027496 215.959198,322.021423 
	C215.964127,321.992249 215.933563,322.045746 215.966705,322.458252 
	C215.995667,324.251373 215.991501,325.631989 215.987320,327.012634 
	C215.987320,327.012634 216.005234,326.994904 216.014343,326.986023 
z"/>
<path fill="#31A2F2" opacity="1.000000" stroke="none" 
	d="
M297.991272,321.991150 
	C297.983154,323.402344 297.983154,324.821838 297.983154,326.708893 
	C296.536774,326.809662 295.189758,326.903534 293.414429,326.991852 
	C292.986176,326.986298 292.998627,326.998627 292.998291,326.589783 
	C293.033081,324.800507 293.068146,323.420044 293.512268,322.022552 
	C295.286072,322.008881 296.650879,322.012299 298.015656,322.015686 
	C298.015656,322.015686 297.999390,321.999390 297.991272,321.991150 
z"/>
<path fill="#31A2F2" opacity="1.000000" stroke="none" 
	d="
M221.012024,225.012329 
	C221.020828,223.600189 221.020828,222.179092 221.020828,220.290024 
	C222.465851,220.190277 223.814713,220.097168 225.592377,220.012375 
	C226.021149,220.020691 226.002396,220.002304 226.004227,220.407608 
	C225.973434,222.193436 225.940811,223.573944 225.498459,224.975235 
	C223.721039,224.992538 222.353333,224.989090 220.985641,224.985626 
	C220.985641,224.985626 221.003220,225.003342 221.012024,225.012329 
z"/>
<path fill="#FF55AE" opacity="1.000000" stroke="none" 
	d="
M226.452271,331.996521 
	C225.995956,330.584534 225.995956,329.165131 225.995956,327.297791 
	C224.552155,327.178558 223.203461,327.067200 221.430466,326.478088 
	C221.645859,321.692688 218.825562,321.823242 215.933563,322.045746 
	C215.933563,322.045746 215.964127,321.992249 215.974243,321.560425 
	C215.989426,319.803925 216.156937,318.455719 215.969696,317.158783 
	C215.362869,312.955933 217.157562,311.702698 221.244034,311.867493 
	C223.586884,311.961945 225.983398,310.725464 229.007431,309.913116 
	C229.741028,310.308624 231.227982,311.353546 232.877106,311.950256 
	C236.677780,313.325531 240.127640,314.592865 244.540604,312.294739 
	C250.601212,309.138611 252.687958,316.133270 255.923782,318.901123 
	C261.111572,323.338684 265.459290,323.346893 268.181274,317.000000 
	C269.372864,317.000000 270.686432,317.000000 272.000061,317.420929 
	C273.083405,319.660950 274.166718,321.480011 275.250000,323.299103 
	C275.751587,323.085724 276.253174,322.872314 276.754761,322.658936 
	C276.836914,324.105560 276.919067,325.552155 277.000610,326.999390 
	C277.000000,327.000000 276.996979,327.003021 276.530884,327.002502 
	C270.449066,326.183411 264.191467,329.263123 259.330933,323.858063 
	C258.854431,323.937653 258.377930,324.017242 257.901398,324.096832 
	C257.603363,328.340393 257.305328,332.583954 257.007294,336.827515 
	C253.971542,336.871704 250.935776,336.915894 247.449173,336.473358 
	C247.337479,333.157196 246.358582,331.680847 243.237518,331.973328 
	C241.142273,332.169678 239.016022,332.035004 236.903641,332.048462 
	C233.571960,332.028656 230.240280,332.008850 226.452271,331.996521 
z"/>
<path fill="#FF49AB" opacity="1.000000" stroke="none" 
	d="
M257.468262,336.897308 
	C257.305328,332.583954 257.603363,328.340393 257.901398,324.096832 
	C258.377930,324.017242 258.854431,323.937653 259.330933,323.858063 
	C264.191467,329.263123 270.449066,326.183411 276.531677,327.405548 
	C276.997101,329.150208 276.995636,330.491333 276.994141,331.832458 
	C275.578583,331.931824 274.163086,332.031189 272.275696,332.163696 
	C272.187164,333.455811 272.094910,334.802887 272.004333,336.578003 
	C267.313782,336.993073 262.621490,336.980103 257.468262,336.897308 
z"/>
<path fill="#FF6CAB" opacity="1.000000" stroke="none" 
	d="
M236.946716,332.460083 
	C239.016022,332.035004 241.142273,332.169678 243.237518,331.973328 
	C246.358582,331.680847 247.337479,333.157196 246.999069,336.404968 
	C243.965378,336.880188 240.930939,336.937073 237.441177,337.003998 
	C236.987167,335.633270 236.988480,334.252472 236.946716,332.460083 
z"/>
<path fill="#FF55A3" opacity="1.000000" stroke="none" 
	d="
M200.886414,297.042816 
	C199.526993,297.028229 198.167587,297.013641 196.400055,297.003510 
	C196.005722,295.286346 196.019516,293.564697 196.558517,291.419830 
	C207.722137,290.996124 218.360535,290.995636 229.332779,290.996399 
	C230.111679,290.998444 230.556763,290.999237 231.040100,291.364929 
	C232.719284,293.820709 234.360184,295.911560 235.850952,298.346252 
	C235.306519,300.247040 234.912216,301.803986 234.617737,302.966827 
	C231.906738,302.626282 229.419662,302.111267 226.920288,302.042267 
	C221.811188,301.901245 216.684921,301.799622 211.586075,302.068207 
	C207.987259,302.257812 205.348999,301.786133 205.613312,297.042816 
	C203.790833,297.042816 202.338623,297.042816 200.886414,297.042816 
z"/>
<path fill="#FF529A" opacity="1.000000" stroke="none" 
	d="
M228.998947,290.995117 
	C218.360535,290.995636 207.722137,290.996124 196.626846,290.995209 
	C196.111908,286.304413 196.053864,281.615051 195.994049,276.458984 
	C197.693817,275.319550 200.745102,277.758392 201.469910,273.412292 
	C203.236252,273.814545 205.506744,274.422333 205.713211,275.446289 
	C206.544128,279.567169 208.571991,280.851166 212.792038,281.268890 
	C215.797699,281.566406 218.552963,284.343475 221.439896,285.978790 
	C221.690201,286.120575 222.095566,286.040253 222.418884,285.993652 
	C226.310928,285.432495 228.177292,287.523773 228.998947,290.995117 
z"/>
<path fill="#FF7196" opacity="1.000000" stroke="none" 
	d="
M313.007751,296.556641 
	C311.649628,297.011719 310.284882,297.009064 308.188599,296.872986 
	C303.339386,295.768677 299.221741,294.797699 294.288879,293.634491 
	C293.123810,294.871094 291.353302,300.108673 288.364960,295.139221 
	C286.100311,291.373291 283.572205,290.818970 279.909332,290.961975 
	C275.613861,291.129669 271.306885,291.001221 266.749359,291.000458 
	C266.323517,290.998993 266.153229,290.998260 265.986084,290.580933 
	C265.986298,288.775421 265.983368,287.386475 266.438110,285.997009 
	C271.350800,285.357086 277.330811,288.413452 279.367126,281.011139 
	C280.461609,281.341949 281.653809,281.506226 281.827026,282.016479 
	C283.217224,286.111084 286.409393,286.096283 289.892059,286.038177 
	C297.536713,285.910614 305.184967,285.997955 312.831757,285.997528 
	C312.888214,289.364655 312.944672,292.731781 313.007751,296.556641 
z"/>
<path fill="#FF758B" opacity="1.000000" stroke="none" 
	d="
M312.898743,285.547546 
	C305.184967,285.997955 297.536713,285.910614 289.892059,286.038177 
	C286.409393,286.096283 283.217224,286.111084 281.827026,282.016479 
	C281.653809,281.506226 280.461609,281.341949 278.946014,281.011139 
	C274.514923,281.285431 271.339355,281.000214 272.465424,276.000427 
	C284.660736,275.986542 296.386932,275.973419 308.113159,275.960327 
	C309.474457,275.972198 310.835754,275.984100 312.605560,275.990967 
	C312.997925,279.023132 312.981812,282.060333 312.898743,285.547546 
z"/>
<path fill="#FFB173" opacity="1.000000" stroke="none" 
	d="
M231.179581,214.007507 
	C231.119827,212.934235 231.060074,211.860947 230.989944,210.383636 
	C232.791687,209.979614 234.603806,209.979614 237.001068,209.979614 
	C237.001068,206.464844 237.001068,203.185547 236.990814,199.443359 
	C238.344452,198.986023 239.708344,198.991531 241.924149,198.991074 
	C245.475342,199.454910 248.748184,199.137802 250.734650,200.585632 
	C253.466843,202.576996 255.620651,202.836243 258.885223,202.436630 
	C261.839233,202.075058 265.093842,203.711655 268.133362,204.716766 
	C269.472961,205.159729 270.608185,206.220566 271.836212,207.000885 
	C271.564850,210.501190 274.007690,210.054794 276.603821,209.985596 
	C277.005707,211.378098 276.990112,212.777527 276.447754,214.589661 
	C273.439117,215.001984 270.925323,215.258545 268.481110,214.954819 
	C259.861694,213.883804 250.239395,218.482361 242.777908,209.829590 
	C242.134384,211.902878 241.677597,213.374496 241.115387,215.185760 
	C237.657883,214.775757 234.418732,214.391632 231.179581,214.007507 
z"/>
<path fill="#FFA56A" opacity="1.000000" stroke="none" 
	d="
M231.112457,214.437912 
	C234.418732,214.391632 237.657883,214.775757 241.115387,215.185760 
	C241.677597,213.374496 242.134384,211.902878 242.777908,209.829590 
	C250.239395,218.482361 259.861694,213.883804 268.481110,214.954819 
	C270.925323,215.258545 273.439117,215.001984 276.378601,215.003754 
	C276.934845,216.428772 277.033539,217.852371 277.182129,219.995682 
	C278.809662,219.995682 280.477905,219.995682 282.581970,219.988907 
	C283.017853,221.406891 283.017853,222.831650 283.017853,224.720200 
	C284.455505,224.815826 285.807404,224.905762 287.588654,224.988831 
	C288.018951,228.006226 288.019897,231.030457 287.672424,234.516449 
	C286.092957,234.632416 284.186737,234.666595 283.742889,233.877869 
	C281.263245,229.471344 277.204498,229.950592 273.226746,230.003647 
	C268.441193,230.067490 263.556702,230.780304 260.152008,225.946579 
	C259.542542,225.081299 257.384125,224.949585 255.985657,225.057770 
	C248.984283,225.599350 241.997818,226.333527 234.591522,226.999146 
	C231.420685,226.317017 228.664444,225.635742 225.908203,224.954468 
	C225.940811,223.573944 225.973434,222.193436 225.994965,220.398392 
	C227.413162,219.983871 228.842453,219.983871 231.045334,219.983871 
	C231.045334,218.202637 231.045334,216.535477 231.112457,214.437912 
z"/>
<path fill="#FF55AE" opacity="1.000000" stroke="none" 
	d="
M277.419434,331.901428 
	C276.995636,330.491333 276.997101,329.150208 276.997803,327.406067 
	C276.996979,327.003021 277.000000,327.000000 277.436310,326.999695 
	C279.618835,327.012939 281.365082,327.026489 283.111328,327.040039 
	C283.075134,328.420441 283.038940,329.800842 283.006775,331.596008 
	C281.288757,331.997314 279.566742,331.983826 277.419434,331.901428 
z"/>
<path fill="#FF8273" opacity="1.000000" stroke="none" 
	d="
M216.000580,235.444839 
	C217.370438,234.992386 218.749664,234.993607 220.696320,235.267258 
	C225.696014,240.665207 232.218811,240.373871 238.015961,242.406998 
	C238.746536,243.532898 239.551056,244.938126 240.165253,244.859360 
	C244.546158,244.297592 247.742538,245.794708 249.668762,250.406631 
	C252.774460,246.899750 255.688751,246.259460 258.628357,249.661392 
	C258.806061,249.867050 259.245728,249.916199 259.564789,249.919678 
	C267.425964,250.005447 275.288147,250.031281 283.147888,250.185623 
	C284.677826,250.215652 287.328369,250.384232 287.544739,251.082809 
	C289.326660,256.835266 293.824493,256.051727 298.111847,255.958313 
	C299.473114,255.971741 300.834381,255.985184 302.604187,255.992950 
	C303.013367,259.011444 303.014069,262.035645 302.586426,265.521729 
	C293.439117,265.988251 284.720184,265.992920 275.994873,265.608276 
	C274.299591,263.813599 272.762268,261.507019 270.889923,261.192078 
	C267.097534,260.554138 263.122528,260.937164 259.224945,261.010895 
	C256.331116,261.065613 253.614426,261.198639 252.209366,257.760956 
	C251.853577,256.890472 250.159790,256.133698 249.045746,256.082092 
	C244.491516,255.871155 239.922485,256.001465 235.361847,255.887726 
	C234.438141,255.864670 233.213303,255.604477 232.663452,254.980881 
	C229.913101,251.861755 227.341278,248.585220 224.557358,245.181458 
	C224.521683,245.174515 224.197357,245.061172 223.871292,245.055878 
	C221.214691,245.012665 218.557770,244.989624 215.900940,244.960449 
	C215.937271,241.939804 215.973602,238.919159 216.000580,235.444839 
z"/>
<path fill="#FF8D6E" opacity="1.000000" stroke="none" 
	d="
M298.064362,255.504990 
	C293.824493,256.051727 289.326660,256.835266 287.544739,251.082809 
	C287.328369,250.384232 284.677826,250.215652 283.147888,250.185623 
	C275.288147,250.031281 267.425964,250.005447 259.564789,249.919678 
	C259.245728,249.916199 258.806061,249.867050 258.628357,249.661392 
	C255.688751,246.259460 252.774460,246.899750 249.668762,250.406631 
	C247.742538,245.794708 244.546158,244.297592 240.165253,244.859360 
	C239.551056,244.938126 238.746536,243.532898 238.393845,242.364395 
	C241.740616,240.271561 247.021652,241.832245 247.412109,236.000824 
	C253.892288,235.344559 258.675049,239.572449 265.043793,239.866470 
	C273.584534,240.260757 283.724518,237.181290 291.162903,244.917221 
	C291.481445,245.248489 292.448151,244.956528 293.112915,244.954910 
	C294.474335,244.969177 295.835754,244.983444 297.605743,244.991669 
	C298.015167,248.340958 298.016022,251.696320 298.064362,255.504990 
z"/>
<path fill="#FF6587" opacity="1.000000" stroke="none" 
	d="
M271.996338,276.001221 
	C271.339355,281.000214 274.514923,281.285431 278.571594,281.004883 
	C277.330811,288.413452 271.350800,285.357086 266.041565,285.997742 
	C263.424225,285.608429 260.837494,285.819855 260.037323,284.725311 
	C256.109131,279.351746 250.595993,281.286285 245.570496,281.029694 
	C242.594315,280.877716 239.548737,280.635132 236.631760,281.076660 
	C230.701324,281.974304 228.948608,276.738678 226.306061,273.660400 
	C224.875351,271.993774 224.088379,271.076172 222.007858,270.960724 
	C219.920044,270.844910 216.441483,270.987183 216.011581,269.977631 
	C213.841782,264.882507 209.655853,266.193237 205.885681,265.955902 
	C205.923660,262.936798 205.961639,259.917694 205.995499,256.444977 
	C207.352249,255.992294 208.713150,255.993256 210.892242,255.990433 
	C213.129211,256.976349 215.428574,257.700928 215.819748,259.000061 
	C217.906464,265.930206 217.743958,265.878876 225.181091,266.068787 
	C227.114883,266.118164 230.299820,266.525299 230.716232,267.610199 
	C232.097870,271.209717 234.640762,270.902771 237.501221,271.068604 
	C240.315430,271.231781 243.472092,273.014343 245.802689,272.185669 
	C249.097992,271.013977 251.073654,270.167664 252.873672,274.030579 
	C253.373230,275.102631 255.569138,275.742065 257.063324,275.913788 
	C259.676331,276.214020 262.348602,275.998291 265.433868,275.999573 
	C267.913239,276.000671 269.954773,276.000946 271.996338,276.001221 
z"/>
<path fill="#FF7879" opacity="1.000000" stroke="none" 
	d="
M215.492157,244.979004 
	C218.557770,244.989624 221.214691,245.012665 223.871292,245.055878 
	C224.197357,245.061172 224.521683,245.174515 224.557358,245.181458 
	C227.341278,248.585220 229.913101,251.861755 232.663452,254.980881 
	C233.213303,255.604477 234.438141,255.864670 235.361847,255.887726 
	C239.922485,256.001465 244.491516,255.871155 249.045746,256.082092 
	C250.159790,256.133698 251.853577,256.890472 252.209366,257.760956 
	C253.614426,261.198639 256.331116,261.065613 259.224945,261.010895 
	C263.122528,260.937164 267.097534,260.554138 270.889923,261.192078 
	C272.762268,261.507019 274.299591,263.813599 275.955536,265.970947 
	C273.583954,272.707123 268.354614,270.631866 263.579834,270.998779 
	C261.435242,270.439392 258.667999,270.333069 258.190643,269.233063 
	C256.915619,266.294739 254.996750,265.919983 252.290039,265.957855 
	C247.636703,266.022949 242.733765,267.067230 239.234192,262.299774 
	C238.488571,261.283997 236.210571,261.156464 234.610977,261.055267 
	C231.633896,260.866913 228.575439,261.356506 225.671051,260.860352 
	C223.987091,260.572693 222.574524,258.852600 220.974686,257.884766 
	C217.350769,255.692429 217.419037,248.916153 211.173523,250.000061 
	C211.116714,248.608963 211.059921,247.217865 210.996429,245.408249 
	C212.354279,244.992325 213.718811,244.994934 215.492157,244.979004 
z"/>
<path fill="#FF6E7F" opacity="1.000000" stroke="none" 
	d="
M211.104248,250.421417 
	C217.419037,248.916153 217.350769,255.692429 220.974686,257.884766 
	C222.574524,258.852600 223.987091,260.572693 225.671051,260.860352 
	C228.575439,261.356506 231.633896,260.866913 234.610977,261.055267 
	C236.210571,261.156464 238.488571,261.283997 239.234192,262.299774 
	C242.733765,267.067230 247.636703,266.022949 252.290039,265.957855 
	C254.996750,265.919983 256.915619,266.294739 258.190643,269.233063 
	C258.667999,270.333069 261.435242,270.439392 263.583801,271.368103 
	C264.338135,273.157867 264.667114,274.578308 264.996063,275.998779 
	C262.348602,275.998291 259.676331,276.214020 257.063324,275.913788 
	C255.569138,275.742065 253.373230,275.102631 252.873672,274.030579 
	C251.073654,270.167664 249.097992,271.013977 245.802689,272.185669 
	C243.472092,273.014343 240.315430,271.231781 237.501221,271.068604 
	C234.640762,270.902771 232.097870,271.209717 230.716232,267.610199 
	C230.299820,266.525299 227.114883,266.118164 225.181091,266.068787 
	C217.743958,265.878876 217.906464,265.930206 215.819748,259.000061 
	C215.428574,257.700928 213.129211,256.976349 211.300064,255.973694 
	C210.938126,254.254761 210.986557,252.548752 211.104248,250.421417 
z"/>
<path fill="#FFBB79" opacity="1.000000" stroke="none" 
	d="
M271.904785,206.560211 
	C270.608185,206.220566 269.472961,205.159729 268.133362,204.716766 
	C265.093842,203.711655 261.839233,202.075058 258.885223,202.436630 
	C255.620651,202.836243 253.466843,202.576996 250.734650,200.585632 
	C248.748184,199.137802 245.475342,199.454910 242.332855,198.973053 
	C241.925888,195.936462 241.962082,192.911926 241.988220,189.432755 
	C243.399857,188.978134 244.821564,188.978134 246.703415,188.978134 
	C246.818146,187.557098 246.926895,186.209915 247.556335,184.436203 
	C252.660965,184.013031 257.244904,184.016373 261.828857,184.019730 
	C261.927551,185.437485 262.026215,186.855240 262.157135,188.736176 
	C263.458710,188.821686 264.810974,188.910538 266.592285,188.988968 
	C267.021393,192.033096 267.021393,195.087631 267.021393,198.666748 
	C268.450012,198.780411 269.794891,198.887421 271.581421,198.985687 
	C272.006439,201.357834 271.989868,203.738678 271.904785,206.560211 
z"/>
<path fill="#FFCB8C" opacity="1.000000" stroke="none" 
	d="
M261.898224,183.603607 
	C257.244904,184.016373 252.660965,184.013031 247.623077,184.013580 
	C247.110962,182.616837 247.052795,181.216202 246.984146,179.394623 
	C248.457642,178.973663 249.941635,178.973663 252.005661,178.973663 
	C252.005661,175.796234 252.005661,172.844284 251.990799,169.434113 
	C253.378296,168.985794 254.780655,168.995712 256.603516,168.990753 
	C257.024048,172.029877 257.024048,175.083862 257.024048,178.664322 
	C258.452454,178.779007 259.797821,178.887024 261.584717,178.984421 
	C262.006653,180.378357 261.987122,181.782913 261.898224,183.603607 
z"/>
<path fill="#FF6FA0" opacity="1.000000" stroke="none" 
	d="
M267.004883,291.001221 
	C271.306885,291.001221 275.613861,291.129669 279.909332,290.961975 
	C283.572205,290.818970 286.100311,291.373291 288.364960,295.139221 
	C291.353302,300.108673 293.123810,294.871094 294.288879,293.634491 
	C299.221741,294.797699 303.339386,295.768677 307.780396,296.895081 
	C308.069397,300.069366 308.035034,303.088196 308.007843,306.561035 
	C306.433899,307.121887 304.852783,307.228790 302.660889,307.666443 
	C298.267029,307.646088 294.476135,307.358948 290.706543,306.897827 
	C289.796600,306.786499 288.991852,305.989990 288.078003,305.700012 
	C286.086517,305.068146 284.075226,304.472687 282.037018,304.019958 
	C278.706024,303.280090 275.347137,302.665985 271.998962,301.613068 
	C271.386871,299.850677 270.820740,298.451843 270.154358,297.102478 
	C269.141022,295.050690 268.058197,293.033264 267.004883,291.001221 
z"/>
<path fill="#FF5CA9" opacity="1.000000" stroke="none" 
	d="
M200.933167,297.492004 
	C202.338623,297.042816 203.790833,297.042816 205.613312,297.042816 
	C205.348999,301.786133 207.987259,302.257812 211.586075,302.068207 
	C216.684921,301.799622 221.811188,301.901245 226.920288,302.042267 
	C229.419662,302.111267 231.906738,302.626282 234.617737,302.966827 
	C234.912216,301.803986 235.306519,300.247040 236.289536,298.345459 
	C238.043121,297.980530 239.230759,298.100281 240.368790,297.915131 
	C244.895676,297.178741 249.856247,294.556610 252.448456,301.208191 
	C252.655838,301.740326 254.202682,301.870514 255.150238,301.972870 
	C258.760864,302.363007 262.380981,302.665070 265.998383,303.428650 
	C266.025879,307.939636 265.562134,312.326904 271.766663,312.426178 
	C271.854126,314.140533 271.927063,315.570251 272.000000,317.000000 
	C270.686432,317.000000 269.372864,317.000000 268.181274,317.000000 
	C265.459290,323.346893 261.111572,323.338684 255.923782,318.901123 
	C252.687958,316.133270 250.601212,309.138611 244.540604,312.294739 
	C240.127640,314.592865 236.677780,313.325531 232.877106,311.950256 
	C231.227982,311.353546 229.741028,310.308624 229.007431,309.913116 
	C225.983398,310.725464 223.586884,311.961945 221.244034,311.867493 
	C217.157562,311.702698 215.362869,312.955933 215.969696,317.158783 
	C216.156937,318.455719 215.989426,319.803925 215.969299,321.589630 
	C214.578247,322.027496 213.202225,322.004364 211.412811,321.990845 
	C211.003708,320.635376 211.007996,319.270355 211.001175,317.034546 
	C210.990067,313.263275 210.990067,310.362732 210.990067,307.038300 
	C208.803497,307.038300 207.351471,307.038300 205.899460,307.038300 
	C204.536743,307.022095 203.174026,307.005890 201.402374,306.998108 
	C200.988922,303.984772 200.984421,300.962982 200.933167,297.492004 
z"/>
<path fill="#FF6CAB" opacity="1.000000" stroke="none" 
	d="
M205.943542,307.488220 
	C207.351471,307.038300 208.803497,307.038300 210.990067,307.038300 
	C210.990067,310.362732 210.990067,313.263275 210.977875,316.625732 
	C209.582962,317.055511 208.200256,317.023346 206.402298,317.002075 
	C205.987259,313.988007 205.987442,310.963104 205.943542,307.488220 
z"/>
<path fill="#FF6CAB" opacity="1.000000" stroke="none" 
	d="
M272.000000,317.000000 
	C271.927063,315.570251 271.854126,314.140533 271.766663,312.426178 
	C265.562134,312.326904 266.025879,307.939636 266.349731,303.276001 
	C268.466827,302.462708 270.233429,302.230743 272.000000,301.998779 
	C275.347137,302.665985 278.706024,303.280090 282.037018,304.019958 
	C284.075226,304.472687 286.086517,305.068146 288.078003,305.700012 
	C288.991852,305.989990 289.796600,306.786499 290.706543,306.897827 
	C294.476135,307.358948 298.267029,307.646088 302.440369,307.997070 
	C302.886841,310.702057 302.943024,313.407074 303.007050,316.563538 
	C301.595184,317.014923 300.175446,317.014923 298.288727,317.014923 
	C298.188171,318.463196 298.094604,319.811066 298.008362,321.587311 
	C296.650879,322.012299 295.286072,322.008881 293.048645,322.010376 
	C288.479614,321.413055 283.288727,324.204742 282.169312,317.573456 
	C282.113007,317.239807 280.391693,317.059143 279.438782,317.029846 
	C276.961212,316.953674 274.479858,317.001587 272.000000,317.000000 
z"/>
<path fill="#FF6CAB" opacity="1.000000" stroke="none" 
	d="
M215.966705,322.458252 
	C218.825562,321.823242 221.645859,321.692688 221.008423,326.407898 
	C219.615799,326.873566 218.220932,326.931702 216.406677,327.001221 
	C215.991501,325.631989 215.995667,324.251373 215.966705,322.458252 
z"/>
<path fill="#FF5CA9" opacity="1.000000" stroke="none" 
	d="
M272.000061,317.420929 
	C274.479858,317.001587 276.961212,316.953674 279.438782,317.029846 
	C280.391693,317.059143 282.113007,317.239807 282.169312,317.573456 
	C283.288727,324.204742 288.479614,321.413055 292.639587,322.027435 
	C293.068146,323.420044 293.033081,324.800507 293.004272,326.595734 
	C290.008270,327.008636 287.006042,327.006775 283.557556,327.022461 
	C281.365082,327.026489 279.618835,327.012939 277.436920,326.999084 
	C276.919067,325.552155 276.836914,324.105560 276.754761,322.658936 
	C276.253174,322.872314 275.751587,323.085724 275.250000,323.299103 
	C274.166718,321.480011 273.083405,319.660950 272.000061,317.420929 
z"/>
<path fill="#FF5A91" opacity="1.000000" stroke="none" 
	d="
M205.478378,265.973450 
	C209.655853,266.193237 213.841782,264.882507 216.011581,269.977631 
	C216.441483,270.987183 219.920044,270.844910 222.007858,270.960724 
	C224.088379,271.076172 224.875351,271.993774 226.306061,273.660400 
	C228.948608,276.738678 230.701324,281.974304 236.631760,281.076660 
	C239.548737,280.635132 242.594315,280.877716 245.570496,281.029694 
	C250.595993,281.286285 256.109131,279.351746 260.037323,284.725311 
	C260.837494,285.819855 263.424225,285.608429 265.583923,285.998291 
	C265.983368,287.386475 265.986298,288.775421 265.535339,290.580017 
	C262.942078,290.992828 260.768219,291.228333 258.672119,290.925690 
	C256.159790,290.562958 253.687576,289.130127 251.244019,289.234802 
	C244.483826,289.524445 237.747559,290.372650 231.001831,291.000000 
	C230.556763,290.999237 230.111679,290.998444 229.332779,290.996399 
	C228.177292,287.523773 226.310928,285.432495 222.418884,285.993652 
	C222.095566,286.040253 221.690201,286.120575 221.439896,285.978790 
	C218.552963,284.343475 215.797699,281.566406 212.792038,281.268890 
	C208.571991,280.851166 206.544128,279.567169 205.713211,275.446289 
	C205.506744,274.422333 203.236252,273.814545 201.540833,273.007446 
	C201.110718,270.956146 201.054245,268.912811 200.994980,266.430847 
	C202.351822,265.991821 203.711456,265.991425 205.478378,265.973450 
z"/>
<path fill="#FF7881" opacity="1.000000" stroke="none" 
	d="
M265.433868,275.999573 
	C264.667114,274.578308 264.338135,273.157867 264.005188,271.368103 
	C268.354614,270.631866 273.583954,272.707123 275.961884,266.360229 
	C284.720184,265.992920 293.439117,265.988251 302.634125,265.971313 
	C304.471985,265.971313 305.833801,265.983612 307.604431,265.991333 
	C308.014435,269.011597 308.015625,272.036499 308.064972,275.510834 
	C296.386932,275.973419 284.660736,275.986542 272.465424,276.000427 
	C269.954773,276.000946 267.913239,276.000671 265.433868,275.999573 
z"/>
<path fill="#FF996B" opacity="1.000000" stroke="none" 
	d="
M293.066925,244.505585 
	C292.448151,244.956528 291.481445,245.248489 291.162903,244.917221 
	C283.724518,237.181290 273.584534,240.260757 265.043793,239.866470 
	C258.675049,239.572449 253.892288,235.344559 247.170563,235.725525 
	C241.266327,234.559311 237.813446,231.219315 235.006104,227.000000 
	C241.997818,226.333527 248.984283,225.599350 255.985657,225.057770 
	C257.384125,224.949585 259.542542,225.081299 260.152008,225.946579 
	C263.556702,230.780304 268.441193,230.067490 273.226746,230.003647 
	C277.204498,229.950592 281.263245,229.471344 283.742889,233.877869 
	C284.186737,234.666595 286.092957,234.632416 287.719177,234.965927 
	C289.475891,234.967484 290.837402,234.981293 292.607635,234.989349 
	C293.017853,238.007828 293.019409,241.032028 293.066925,244.505585 
z"/>
<path fill="#FF9174" opacity="1.000000" stroke="none" 
	d="
M234.591522,226.999146 
	C237.813446,231.219315 241.266327,234.559311 246.758453,235.725922 
	C247.021652,241.832245 241.740616,240.271561 238.379700,241.956787 
	C232.218811,240.373871 225.696014,240.665207 221.107849,235.224579 
	C220.968582,231.903336 220.985199,228.897232 220.993729,225.438385 
	C222.353333,224.989090 223.721039,224.992538 225.498474,224.975235 
	C228.664444,225.635742 231.420685,226.317017 234.591522,226.999146 
z"/>
<path fill="#FF629D" opacity="1.000000" stroke="none" 
	d="
M231.040100,291.364929 
	C237.747559,290.372650 244.483826,289.524445 251.244019,289.234802 
	C253.687576,289.130127 256.159790,290.562958 258.672119,290.925690 
	C260.768219,291.228333 262.942078,290.992828 265.532196,290.996643 
	C266.153229,290.998260 266.323517,290.998993 266.749359,291.000458 
	C268.058197,293.033264 269.141022,295.050690 270.154358,297.102478 
	C270.820740,298.451843 271.386871,299.850677 271.998962,301.613068 
	C270.233429,302.230743 268.466827,302.462708 266.348907,302.847351 
	C262.380981,302.665070 258.760864,302.363007 255.150238,301.972870 
	C254.202682,301.870514 252.655838,301.740326 252.448456,301.208191 
	C249.856247,294.556610 244.895676,297.178741 240.368790,297.915131 
	C239.230759,298.100281 238.043121,297.980530 236.439667,298.001648 
	C234.360184,295.911560 232.719284,293.820709 231.040100,291.364929 
z"/>
</svg>